<svg width="186" height="81" viewBox="0 0 186 81" fill="none" xmlns="http://www.w3.org/2000/svg">
<path id="Vector" d="M61.9991 40.3631V67.0317C61.9991 74.3956 67.9539 80.3645 75.3005 80.3645C82.6473 80.3645 88.6047 74.3956 88.6047 67.0317V40.3631C88.6047 32.9992 82.6473 27.0301 75.3005 27.0301C67.9539 27.0301 61.9991 33.0019 61.9991 40.3631ZM88.6047 13.6974C88.6047 21.0614 82.6473 27.0301 75.3005 27.0301C67.9539 27.0301 61.9991 21.0614 61.9991 13.6974C61.9991 6.33335 67.9539 0.364471 75.3005 0.364471C82.6473 0.364471 88.6047 6.33335 88.6047 13.6974ZM39.9073 27.0301C32.5605 27.0301 26.6057 32.9992 26.6057 40.3631V13.6974C26.6057 6.33335 20.6509 0.364471 13.3015 0.364471C5.95483 0.364471 0 6.33335 0 13.6974V67.0317C0 74.3956 5.95483 80.3645 13.3015 80.3645H39.9073C47.2539 80.3645 53.2086 74.3956 53.2086 67.0317V40.3631C53.2086 33.0019 47.2539 27.0301 39.9073 27.0301ZM26.603 59.4023C23.4619 59.4023 20.9129 56.8499 20.9129 53.6988C20.9129 50.5474 23.4619 47.9953 26.603 47.9953C29.7469 47.9953 32.2931 50.5474 32.2931 53.6988C32.2931 56.8499 29.7469 59.4023 26.603 59.4023ZM186 13.6974C186 6.33335 180.042 0.364471 172.696 0.364471C165.349 0.364471 159.394 6.33335 159.394 13.6974C159.394 21.0614 165.349 27.0301 172.696 27.0301C180.042 27.0301 186 21.0614 186 13.6974ZM137.283 27.0301C129.937 27.0301 123.982 32.9992 123.982 40.3631V13.6974C123.982 6.33335 118.027 0.364471 110.68 0.364471C103.333 0.364471 97.3787 6.33335 97.3787 13.6974V67.0317C97.3787 74.3956 103.333 80.3645 110.68 80.3645H137.286C144.633 80.3645 150.59 74.3956 150.59 67.0317V40.3631C150.587 33.0019 144.633 27.0301 137.283 27.0301ZM124.017 59.4023C120.873 59.4023 118.327 56.8499 118.327 53.6988C118.327 50.5474 120.876 47.9953 124.017 47.9953C127.158 47.9953 129.707 50.5474 129.707 53.6988C129.71 56.8499 127.161 59.4023 124.017 59.4023ZM172.696 27.0301C180.042 27.0301 186 32.9992 186 40.3631V67.0317C186 74.3956 180.042 80.3645 172.696 80.3645C165.349 80.3645 159.394 74.3956 159.394 67.0317V40.3631C159.394 33.0019 165.349 27.0301 172.696 27.0301Z" fill="white"/>
</svg>
