<svg width="78" height="33" viewBox="0 0 78 33" fill="none" xmlns="http://www.w3.org/2000/svg">
<path d="M26.1641 16.591V27.4263C26.1641 30.4182 28.6204 32.8433 31.6508 32.8433C34.6813 32.8433 37.1387 30.4182 37.1387 27.4263V16.591C37.1387 13.5991 34.6813 11.1739 31.6508 11.1739C28.6204 11.1739 26.1641 13.6002 26.1641 16.591ZM37.1387 5.75688C37.1387 8.74883 34.6813 11.1739 31.6508 11.1739C28.6204 11.1739 26.1641 8.74883 26.1641 5.75688C26.1641 2.76493 28.6204 0.339813 31.6508 0.339813C34.6813 0.339813 37.1387 2.76493 37.1387 5.75688ZM17.0514 11.1739C14.0209 11.1739 11.5646 13.5991 11.5646 16.591V5.75688C11.5646 2.76493 9.10828 0.339813 6.07671 0.339813C3.04627 0.339813 0.589951 2.76493 0.589951 5.75688V27.4263C0.589951 30.4182 3.04627 32.8433 6.07671 32.8433H17.0514C20.0818 32.8433 22.5381 30.4182 22.5381 27.4263V16.591C22.5381 13.6002 20.0818 11.1739 17.0514 11.1739ZM11.5635 24.3265C10.2678 24.3265 9.21635 23.2895 9.21635 22.0092C9.21635 20.7288 10.2678 19.6919 11.5635 19.6919C12.8603 19.6919 13.9106 20.7288 13.9106 22.0092C13.9106 23.2895 12.8603 24.3265 11.5635 24.3265ZM77.3135 5.75688C77.3135 2.76493 74.856 0.339813 71.8256 0.339813C68.7951 0.339813 66.3388 2.76493 66.3388 5.75688C66.3388 8.74883 68.7951 11.1739 71.8256 11.1739C74.856 11.1739 77.3135 8.74883 77.3135 5.75688ZM57.2182 11.1739C54.1878 11.1739 51.7315 13.5991 51.7315 16.591V5.75688C51.7315 2.76493 49.2751 0.339813 46.2447 0.339813C43.2142 0.339813 40.7579 2.76493 40.7579 5.75688V27.4263C40.7579 30.4182 43.2142 32.8433 46.2447 32.8433H57.2193C60.2498 32.8433 62.7072 30.4182 62.7072 27.4263V16.591C62.7061 13.6002 60.2498 11.1739 57.2182 11.1739ZM51.7461 24.3265C50.4493 24.3265 49.399 23.2895 49.399 22.0092C49.399 20.7288 50.4504 19.6919 51.7461 19.6919C53.0418 19.6919 54.0932 20.7288 54.0932 22.0092C54.0943 23.2895 53.0429 24.3265 51.7461 24.3265ZM71.8256 11.1739C74.856 11.1739 77.3135 13.5991 77.3135 16.591V27.4263C77.3135 30.4182 74.856 32.8433 71.8256 32.8433C68.7951 32.8433 66.3388 30.4182 66.3388 27.4263V16.591C66.3388 13.6002 68.7951 11.1739 71.8256 11.1739Z" fill="#EC660D"/>
</svg>
